<svg width="17" height="18" viewBox="0 0 17 18" fill="none" xmlns="http://www.w3.org/2000/svg">
<path d="M7.66675 9.83329V12.3333C7.66675 12.5694 7.74661 12.7673 7.90633 12.927C8.06605 13.0868 8.26397 13.1666 8.50008 13.1666C8.73619 13.1666 8.93411 13.0868 9.09383 12.927C9.25355 12.7673 9.33342 12.5694 9.33342 12.3333V9.83329H11.8334C12.0695 9.83329 12.2674 9.75343 12.4272 9.59371C12.5869 9.43399 12.6667 9.23607 12.6667 8.99996C12.6667 8.76385 12.5869 8.56593 12.4272 8.40621C12.2674 8.24649 12.0695 8.16663 11.8334 8.16663H9.33342V5.66663C9.33342 5.43052 9.25355 5.2326 9.09383 5.07288C8.93411 4.91315 8.73619 4.83329 8.50008 4.83329C8.26397 4.83329 8.06605 4.91315 7.90633 5.07288C7.74661 5.2326 7.66675 5.43052 7.66675 5.66663V8.16663H5.16675C4.93064 8.16663 4.73272 8.24649 4.573 8.40621C4.41328 8.56593 4.33342 8.76385 4.33342 8.99996C4.33342 9.23607 4.41328 9.43399 4.573 9.59371C4.73272 9.75343 4.93064 9.83329 5.16675 9.83329H7.66675ZM8.50008 17.3333C7.3473 17.3333 6.26397 17.1145 5.25008 16.677C4.23619 16.2395 3.35425 15.6458 2.60425 14.8958C1.85425 14.1458 1.2605 13.2638 0.822998 12.25C0.385498 11.2361 0.166748 10.1527 0.166748 8.99996C0.166748 7.84718 0.385498 6.76385 0.822998 5.74996C1.2605 4.73607 1.85425 3.85413 2.60425 3.10413C3.35425 2.35413 4.23619 1.76038 5.25008 1.32288C6.26397 0.885376 7.3473 0.666626 8.50008 0.666626C9.65286 0.666626 10.7362 0.885376 11.7501 1.32288C12.764 1.76038 13.6459 2.35413 14.3959 3.10413C15.1459 3.85413 15.7397 4.73607 16.1772 5.74996C16.6147 6.76385 16.8334 7.84718 16.8334 8.99996C16.8334 10.1527 16.6147 11.2361 16.1772 12.25C15.7397 13.2638 15.1459 14.1458 14.3959 14.8958C13.6459 15.6458 12.764 16.2395 11.7501 16.677C10.7362 17.1145 9.65286 17.3333 8.50008 17.3333Z" fill="white"/>
</svg>
